<svg xmlns="http://www.w3.org/2000/svg" viewBox="0 0 100 100"><defs><style>.cls-1{fill:#fff;}</style></defs><g id="圖層_2" data-name="圖層 2"><g id="栝鍣_1" data-name="栝鍣 1"><path class="cls-1" d="M30.05,69.9a4.79,4.79,0,0,0,6.77,0L69.9,36.82a4.79,4.79,0,0,0-6.77-6.77L30.05,63.13A4.8,4.8,0,0,0,30.05,69.9Z"/><path class="cls-1" d="M48.64,62.75a4.78,4.78,0,0,0-1.39,3.15,12.58,12.58,0,0,1-3.67,8.3L31,86.75a12.61,12.61,0,1,1-17.7-18L25.74,56.37a12.53,12.53,0,0,1,8.32-3.67,4.79,4.79,0,0,0-.44-9.56A22.09,22.09,0,0,0,19,49.6L6.6,62a22.34,22.34,0,0,0-.26,31.44,22.2,22.2,0,0,0,31.46.09L50.34,81A22.09,22.09,0,0,0,56.8,66.34,4.78,4.78,0,0,0,48.64,62.75Z"/><path class="cls-1" d="M93.42,6.34A22.34,22.34,0,0,0,62,6.6L49.6,19a22.09,22.09,0,0,0-6.46,14.64,4.79,4.79,0,0,0,9.56.44,12.53,12.53,0,0,1,3.67-8.32L68.92,13.2A12.61,12.61,0,1,1,86.75,31L74.2,43.58a12.58,12.58,0,0,1-8.3,3.67,4.78,4.78,0,0,0,.44,9.55A22.09,22.09,0,0,0,81,50.34L93.51,37.8A22.2,22.2,0,0,0,93.42,6.34Z"/></g></g></svg>