<svg xmlns="http://www.w3.org/2000/svg" viewBox="0 0 91.93 71.29"><defs><style>.cls-1{fill:#fff;}</style></defs><g id="圖層_2" data-name="圖層 2"><g id="分離模式"><path class="cls-1" d="M35.45,5.05l.86-.11,1.38-.18,1.62-.2c.62-.06,1.23-.11,1.85-.14,1.26-.07,2.52-.13,3.77-.17.71,0,1.43,0,2.14,0s1.14,0,1.71.05l3.6.24c.44,0,.88.08,1.32.13L55.52,5l.71.08c.16,0,.24,0,.31-.2.37-.83.74-1.67,1.14-2.5S58.45.8,58.86,0l1,.17A74,74,0,0,1,77.63,5.88a.81.81,0,0,1,.35.31c.93,1.47,1.87,2.94,2.76,4.43,1.13,1.88,2.15,3.82,3.11,5.78a82.49,82.49,0,0,1,3.58,8.52c.85,2.42,1.59,4.88,2.2,7.37.51,2.06.92,4.14,1.27,6.23.1.62.2,1.24.27,1.86.14,1.15.27,2.29.37,3.44q.13,1.47.21,2.94c0,1,.08,2.06.12,3.09,0,.5.07,1,.06,1.5,0,.86-.07,1.72-.11,2.57,0,.32,0,.64,0,1-.09,1.42-.19,2.83-.28,4.25a.52.52,0,0,1-.27.41c-.78.56-1.55,1.13-2.34,1.68a76.39,76.39,0,0,1-6.78,4.2,72.67,72.67,0,0,1-10.65,4.79c-1,.37-2.08.7-3.12,1.06l-.14,0a57.27,57.27,0,0,1-5-8.18c.66-.31,1.34-.55,2-.84s1.34-.6,2-.92,1.29-.65,1.92-1l1.92-1.09-1.91-1.53-1,.45a55.41,55.41,0,0,1-10,3.42c-1.48.36-3,.64-4.49.87-.64.1-1.28.21-1.92.27s-1.57.12-2.36.18c-1.56.12-3.13.13-4.7.1-1.08,0-2.15-.11-3.23-.18-.41,0-.82-.05-1.22-.09s-.92-.13-1.38-.2c-.7-.1-1.4-.21-2.09-.33a51.18,51.18,0,0,1-6.25-1.49,55.57,55.57,0,0,1-7.67-2.93l-.18-.07-1.9,1.52a49.51,49.51,0,0,0,7.81,3.82,56.57,56.57,0,0,1-5,8.21L23,71.1a76.07,76.07,0,0,1-8.64-3.36A72.11,72.11,0,0,1,5,62.57c-1.45-1-2.86-2-4.3-3A.77.77,0,0,1,.34,59C.29,57.85.21,56.74.13,55.63,0,53.31,0,51,0,48.66c0-1.45.16-2.9.25-4.35,0-.44,0-.89.07-1.33s.13-.72.16-1.08C.59,41,.77,40,.89,39.09,1,38.54,1,38,1.12,37.44c.24-1.23.51-2.46.78-3.69A77,77,0,0,1,5.24,22.82C6.06,20.7,7,18.63,8,16.58a89.92,89.92,0,0,1,5.2-9.29l.67-1a1.06,1.06,0,0,1,.48-.41q2.55-1.19,5.17-2.17A71.13,71.13,0,0,1,28,1c1.54-.36,3.09-.66,4.64-1,.3-.06.3,0,.45.22q1.2,2.19,2.18,4.48Zm34,34.05a9.87,9.87,0,0,0-1.14-4.76,8.46,8.46,0,0,0-4.11-3.94,7.27,7.27,0,0,0-4.8-.41,7.59,7.59,0,0,0-3.95,2.42,10.33,10.33,0,0,0-2.38,8.4,9.54,9.54,0,0,0,3.11,5.85,7.72,7.72,0,0,0,4.08,1.91,6.79,6.79,0,0,0,2.29-.08,7.83,7.83,0,0,0,4.61-2.79,9.41,9.41,0,0,0,2.16-5C69.39,40.17,69.45,39.64,69.46,39.1Zm-47,.07a10,10,0,0,0,4,8.06,7.53,7.53,0,0,0,3.38,1.34,6.86,6.86,0,0,0,2,0,7.88,7.88,0,0,0,4.82-2.8A10.58,10.58,0,0,0,38.74,37a9.21,9.21,0,0,0-2.38-4.72,7.62,7.62,0,0,0-4.68-2.46,7.42,7.42,0,0,0-1.94,0,7.64,7.64,0,0,0-4.94,2.73A10,10,0,0,0,22.42,39.17Z"/></g></g></svg>