<svg xmlns="http://www.w3.org/2000/svg" viewBox="0 0 362.33 362.43"><defs><style>.cls-1{fill:#fff;}</style></defs><g id="圖層_2" data-name="圖層 2"><g id="分離模式"><path class="cls-1" d="M43.31,294.36a7.48,7.48,0,0,1-6-2.94q-1.34-1.74-2.64-3.53a7.5,7.5,0,1,1,12.12-8.83c.79,1.09,1.6,2.16,2.42,3.23a7.5,7.5,0,0,1-5.94,12.07Z"/><path class="cls-1" d="M181.22,362.43A180.91,180.91,0,0,1,60.27,316.17a7.5,7.5,0,1,1,10-11.17,166.28,166.28,0,0,0,266.17-64.25,7.5,7.5,0,1,1,14,5.37A181.28,181.28,0,0,1,181.22,362.43Z"/><path class="cls-1" d="M351.59,222.84a7.41,7.41,0,0,1-1.47-.15,7.5,7.5,0,0,1-5.89-8.82c.64-3.23,1.2-6.53,1.65-9.79a7.5,7.5,0,1,1,14.86,2c-.49,3.56-1.1,7.16-1.8,10.68A7.5,7.5,0,0,1,351.59,222.84Z"/><path class="cls-1" d="M25.22,265.23A7.51,7.51,0,0,1,18.48,261,179.53,179.53,0,0,1,0,181.22C0,81.29,81.29,0,181.22,0a181.21,181.21,0,0,1,181.1,174.83,7.48,7.48,0,0,1-7.23,7.75h-.27a7.5,7.5,0,0,1-7.49-7.24A166.22,166.22,0,0,0,181.22,15C89.57,15,15,89.57,15,181.22a164.49,164.49,0,0,0,17,73.2,7.51,7.51,0,0,1-6.73,10.81Z"/><path class="cls-1" d="M160.47,340.92a7.51,7.51,0,0,1-3.19-.71l-19-9A7.51,7.51,0,0,1,134.1,326l-7.28-34.15a7.54,7.54,0,0,1-.16-1.57V258l-22.73-11.36a7.51,7.51,0,0,1-4.15-6.93l1-34.16L81.11,191,57,188.66a7.55,7.55,0,0,1-3.91-1.56L38.7,175.81a7.5,7.5,0,0,1-2.36-8.64L43,150.27l-5-4.37a7.43,7.43,0,0,1-2.29-3.67l-2.07-7.57-17.75-2.55A7.5,7.5,0,1,1,18,117.27l22.63,3.24A7.52,7.52,0,0,1,46.77,126l2.76,10.14,7.26,6.35a7.47,7.47,0,0,1,2,8.37l-6.49,16.62,8.29,6.5,24,2.32a7.51,7.51,0,0,1,3.74,1.43l24.5,18.12a7.53,7.53,0,0,1,3,6.25l-1,33.29,22.59,11.3a7.51,7.51,0,0,1,4.15,6.71v36.16L148,319.26l8.37,3.94c-1.54-3.22-4.13-8.27-6.43-12.55a7.5,7.5,0,0,1,2.52-9.83L162.92,294l8-8.47,2.95-13.63a7.51,7.51,0,0,1,8.49-5.83l9.72,1.53.64-10.79a7.59,7.59,0,0,1,.95-3.25l9.81-17.39L194.42,225h-13.2a7.51,7.51,0,0,1-6.85-4.44l-5.49-12.29-11.66-4.48a8.08,8.08,0,0,1-1.54-.81l-8.3-5.68-14.55,1.78A7.5,7.5,0,1,1,131,184.22l17.36-2.14a7.53,7.53,0,0,1,5.15,1.26l9.91,6.78,13.74,5.28a7.53,7.53,0,0,1,4.16,3.95L186.08,210H198a7.51,7.51,0,0,1,5.82,2.77l14.56,17.92a7.51,7.51,0,0,1,.71,8.41l-11.47,20.33-1,17.3a7.5,7.5,0,0,1-8.64,7l-10.9-1.7-1.89,8.76a7.47,7.47,0,0,1-1.89,3.57L173.2,305a8.16,8.16,0,0,1-1.36,1.13l-5.46,3.54c6.07,11.7,6.07,13.22,6.07,14.81,0,1.42,0,3.8-5.59,12.88A7.49,7.49,0,0,1,160.47,340.92Z"/><path class="cls-1" d="M85.08,169.76a7.26,7.26,0,0,1-1.22-.1l-14.74-2.41a7.5,7.5,0,0,1-6.2-8.59l2.8-17.36a7.5,7.5,0,0,1,5.08-5.93l29.11-9.52a7.49,7.49,0,0,1,8.53,2.9l.76,1.12,2.41-5.5a7.28,7.28,0,0,1,1.73-2.45l18.28-17.21,7.86-13.11A7.51,7.51,0,0,1,145.91,88H183.6L176,80.72a7.48,7.48,0,0,1-2.31-5.42V64.2l-2.86-2.44L156.64,72a7.5,7.5,0,0,1-8.76-12.18l19-13.66a7.5,7.5,0,0,1,9.25.39l10,8.52a7.47,7.47,0,0,1,2.63,5.7V72.1l10,9.54a7.51,7.51,0,0,1,1.06,9.58l-5.6,8.4a7.49,7.49,0,0,1-6.24,3.34H150.16L144,113.32a7.67,7.67,0,0,1-1.29,1.6l-17.92,16.87-7.23,16.51a7.5,7.5,0,0,1-13.07,1.22l-5.22-7.67L79.8,148.2l-.88,5.46,7.36,1.2a7.5,7.5,0,0,1-1.2,14.9Z"/><path class="cls-1" d="M131.89,82.69A7.48,7.48,0,0,1,126.1,80L108.94,59.11a7.49,7.49,0,0,1,3.59-11.94l16.62-5.09,1.73-5.6L108.15,29.8a7.5,7.5,0,1,1,4.23-14.39l30,8.82a7.51,7.51,0,0,1,5,9.41L142.31,50.3a7.5,7.5,0,0,1-5,5l-9.7,3,10,12.2a7.5,7.5,0,0,1-5.79,12.26Z"/><path class="cls-1" d="M150.1,146.12A7.51,7.51,0,0,1,144,134.29l6.72-9.52A7.5,7.5,0,0,1,163,133.42l-6.72,9.52A7.5,7.5,0,0,1,150.1,146.12Z"/><path class="cls-1" d="M294.54,89.16A7.42,7.42,0,0,1,290.48,88a7.5,7.5,0,0,1-2.23-10.37l12.84-19.85a7.5,7.5,0,0,1,12.59,8.15L300.85,85.73A7.51,7.51,0,0,1,294.54,89.16Z"/><path class="cls-1" d="M343.49,126.59a7.38,7.38,0,0,1-2.75-.53l-42.66-16.83-32.44,8.88a7.52,7.52,0,0,1-3.94,0l-23.19-6.28a7.49,7.49,0,0,1-5.5-8l2.6-26.41a7.5,7.5,0,0,1,5.95-6.61l21-4.34a7.49,7.49,0,0,1,7.6,3L280.65,84a7.5,7.5,0,0,1-12.17,8.77l-7.67-10.64L250,84.41,248.56,99l15.09,4.09,32.89-9a7.51,7.51,0,0,1,4.73.25l45,17.75a7.5,7.5,0,0,1-2.75,14.48Z"/><path class="cls-1" d="M310.15,305.14a7.79,7.79,0,0,1-1.78-.21,7.51,7.51,0,0,1-5.51-9.07c1.34-5.46-.36-16.73-2.11-24.46l-17.22-8.19a7.5,7.5,0,0,1-2.27-11.89l16.93-18.17-6.63-26.55L262.37,213a31.51,31.51,0,0,1-37-21.47l-2.54-8.12A23.45,23.45,0,0,1,239,153.79a5,5,0,0,0,3.7-4.73V149a14.64,14.64,0,0,1,20.88-12.84l12.14,5.73,24.82-13.59a7.51,7.51,0,0,1,8.63,1L329.79,148l18.41-4a7.5,7.5,0,1,1,3.17,14.66l-22.17,4.79a7.49,7.49,0,0,1-6.61-1.76L303,144l-23.49,12.86a7.48,7.48,0,0,1-6.8.2l-15.09-7.12A20,20,0,0,1,243,168.25a8.46,8.46,0,0,0-5.83,10.68l2.55,8.12a16.58,16.58,0,0,0,19.49,11.3l36.31-8a7.49,7.49,0,0,1,8.88,5.5l9.38,37.57a7.48,7.48,0,0,1-1.79,6.93l-12.73,13.67,11.21,5.32a7.51,7.51,0,0,1,4,4.86c.62,2.33,5.93,23.13,3,35.18A7.49,7.49,0,0,1,310.15,305.14Z"/></g></g></svg>