<?xml version="1.0" encoding="utf-8"?>
<!-- Generator: Adobe Illustrator 26.1.0, SVG Export Plug-In . SVG Version: 6.00 Build 0)  -->
<svg version="1.1" id="圖層_1" xmlns="http://www.w3.org/2000/svg" xmlns:xlink="http://www.w3.org/1999/xlink" x="0px" y="0px"
	 viewBox="0 0 530 530" style="enable-background:new 0 0 530 530;" xml:space="preserve">
<style type="text/css">
	.st0{fill:#FFFFFF;}
</style>
<g>
	<path class="st0" d="M369.69,519.65c-15.76,0.34-27.66,0.69-39.56,0.84c-16.24,0.21-32.48,0.32-48.71,0.36
		c-19.41,0.05-38.82,0.15-58.23-0.08c-19.64-0.23-39.28-0.83-58.92-1.29c-13.91-0.33-27.73-1.58-41.35-4.47
		c-20.39-4.32-39.52-11.73-56.29-24.36c-16.73-12.61-30.17-28.08-39.36-47.03C20.84,430.4,16.54,416.48,13.93,402
		c-2.45-13.55-3.54-27.23-3.71-40.96c-0.53-42.8-0.88-85.6-1.15-128.41c-0.1-15.07,0-30.15,0.41-45.21
		c0.37-13.81,0.92-27.63,2.02-41.39c1.37-17.21,5.03-33.99,11.45-50.09c6.23-15.63,15.12-29.56,26.82-41.7
		c9.84-10.21,20.81-18.89,33.4-25.44c9.91-5.15,20.34-9.02,31.13-11.88c17.06-4.52,34.48-6.17,52.07-6.59
		c14.73-0.35,29.45-1.03,44.17-1.13c30.32-0.19,60.64-0.14,90.96-0.09c14.4,0.02,28.81,0.01,43.21,0.47
		c14.47,0.46,28.95,1.08,43.36,2.36c18.83,1.67,36.96,6.48,54.12,14.55c16.59,7.81,30.59,19.01,42.62,32.79
		c15.41,17.66,24.66,38.36,29.57,61.04c1.93,8.91,3.38,18,4,27.09c1.14,16.68,1.84,33.41,2.13,50.12
		c0.42,23.73,0.36,47.47,0.43,71.21c0.04,13.74,0.01,27.49-0.15,41.24c-0.18,16.23-0.31,32.47-0.89,48.68
		c-0.39,11.04-1.15,22.11-2.39,33.09c-2.33,20.5-8.09,40.04-18.12,58.15c-7.04,12.7-16.31,23.66-27.11,33.36
		c-10.68,9.61-22.63,17.2-35.9,22.67c-12.02,4.96-24.42,8.73-37.32,10.46C388.04,517.89,376.94,518.86,369.69,519.65z M475.3,258.71
		c-0.1,0-0.2,0-0.3,0c0-16.14,0.27-32.29-0.07-48.42c-0.41-19.97-1.1-39.93-2.1-59.88c-0.7-13.94-3.83-27.43-9.45-40.28
		c-8.31-18.99-21.87-33.04-40.39-42.15c-15.06-7.41-31.3-10.35-47.92-11.38c-8.64-0.53-17.29-0.88-25.95-1.1
		c-14.31-0.37-28.63-0.66-42.94-0.84c-9.32-0.12-18.64,0.04-27.96,0.04c-17.31-0.01-34.62-0.16-51.93-0.03
		c-14.89,0.11-29.79,0.35-44.68,0.85c-11.8,0.4-23.6,1.06-35.37,2c-14.03,1.13-27.49,4.66-40.17,10.9
		c-15.24,7.5-27,18.76-35.4,33.42c-7.85,13.71-11.87,28.7-13.13,44.36c-1.11,13.92-1.96,27.88-2.4,41.85
		c-0.45,14.47-0.29,28.96-0.38,43.44c-0.07,11.98-0.19,23.97-0.16,35.95c0.04,17.39-0.01,34.78,0.38,52.17
		c0.45,19.97,1.11,39.93,2.11,59.88c0.7,14.02,3.84,27.61,9.54,40.51c8.53,19.29,22.43,33.44,41.42,42.45
		c14.69,6.96,30.44,9.82,46.54,10.83c8.72,0.55,17.46,0.89,26.2,1.11c14.31,0.38,28.62,0.66,42.94,0.84
		c9.32,0.12,18.64-0.04,27.96-0.04c17.31,0.01,34.62,0.16,51.93,0.03c14.89-0.11,29.79-0.34,44.68-0.85c11.8-0.4,23.6-1.06,35.37-2
		c14.12-1.13,27.66-4.7,40.4-11.01c15.04-7.46,26.68-18.61,35.05-33.1c8.61-14.92,12.39-31.32,13.74-48.29
		c0.98-12.35,1.54-24.75,1.9-37.13c0.4-13.48,0.43-26.96,0.5-40.45C475.36,287.83,475.3,273.27,475.3,258.71z"/>
	<path class="st0" d="M265.1,396.26c-37.54-0.47-69.68-13.9-95.5-41.16c-24.63-26-36.74-57.35-35.8-93.19
		c2.03-77.82,66.97-129.01,131.16-128.24c37.51,0.44,69.52,13.92,95.31,41.04c24.68,25.96,36.81,57.32,35.9,93.15
		C394.18,345.57,329.54,396.91,265.1,396.26z M179.35,264.31c-0.28,49.48,40.55,87.03,86.88,86.28
		c47.22-0.76,87.23-40.26,84.2-91.24c-2.6-43.82-39.75-80.76-86.7-79.99C215.79,180.14,179.62,218.97,179.35,264.31z"/>
	<path class="st0" d="M370.91,128.01c0.1-16.95,14.16-30.8,31.82-30.05c16.81,0.71,29.43,14.53,29.26,30.72
		c-0.19,17.77-14.64,31.34-32.56,30.36C383.61,158.17,370.34,144.55,370.91,128.01z"/>
</g>
</svg>
