<svg xmlns="http://www.w3.org/2000/svg" viewBox="0 0 83.13 83.13"><defs><style>.cls-1{fill:#fff;}</style></defs><g id="圖層_2" data-name="圖層 2"><g id="分離模式"><path class="cls-1" d="M83.13,41.57A41.57,41.57,0,1,1,41.57,0,41.56,41.56,0,0,1,83.13,41.57ZM17.56,48.22c-.66,7,5.29,14,12.28,14.3,7.66.3,15.33.16,23,.18a7,7,0,0,0,5.81-3c1.43-1.91,2.76-3.91,4-5.94A10.61,10.61,0,0,1,67,49.82c1.9-1,2.21-1.87,1.42-4.12-.29.08-.6.14-.9.23-3.41,1-6.81,2-10.23,2.91a5.25,5.25,0,0,0-3.08,1.9c-2.36,3.2-5.7,2.51-8.93,2.42v-4.5c1,0,1.92.07,2.83,0a2.31,2.31,0,0,0,1.45-.58,67.88,67.88,0,0,0,4.9-6A8,8,0,0,0,55,33.72a23.43,23.43,0,0,0-7.1-8.7c-2-1.57-3.08-3.18-2.73-5.79a2.19,2.19,0,0,0-2.24-2.56,2.39,2.39,0,0,0-2.4,2.5c0,.8,0,1.61,0,2.53L34,20c.34.7.55,1.1.72,1.51,1.23,3.07,2.62,6.08,3.64,9.22a15.12,15.12,0,0,1-1.58,13.38c-.7,1.08-1.36,2.19-2,3.29-.18.3-.32.62-.63,1.24h6.31v4.54c-2.25,0-4.41.09-6.57,0A4,4,0,0,1,30.43,50c-.14-.57-.2-1.15-.3-1.78ZM32.09,25.7l-.47-.1c-3.75,5.87-7.51,11.73-11.45,17.9,4.11,0,7.78,0,11.46,0a1,1,0,0,0,.77-.42c.87-1.87,2.13-3.69,2.41-5.65C35.41,33.24,33.7,29.44,32.09,25.7Z"/></g></g></svg>