<svg xmlns="http://www.w3.org/2000/svg" viewBox="0 0 494.72 495.54"><defs><style>.cls-1{fill:#fff;}</style></defs><g id="圖層_2" data-name="圖層 2"><g id="Layer_2" data-name="Layer 2"><path class="cls-1" d="M228,398.81a8,8,0,0,1-1-.06,163.71,163.71,0,0,1-25.57-5.39A7.5,7.5,0,0,1,205.73,379,148.14,148.14,0,0,0,229,383.87a7.5,7.5,0,0,1-.94,14.94Z"/><path class="cls-1" d="M271.3,398.31a7.5,7.5,0,0,1-1.12-14.92A147.67,147.67,0,0,0,394.56,221.64a7.5,7.5,0,1,1,14.91-1.59,162.68,162.68,0,0,1-137,178.17A7.3,7.3,0,0,1,271.3,398.31Z"/><path class="cls-1" d="M392.26,188.43a7.5,7.5,0,0,1-7-4.77A147.51,147.51,0,0,0,369,153.16a7.5,7.5,0,0,1,12.3-8.58,162.12,162.12,0,0,1,18,33.62,7.5,7.5,0,0,1-4.25,9.71A7.36,7.36,0,0,1,392.26,188.43Z"/><path class="cls-1" d="M129.22,345a7.46,7.46,0,0,1-5.73-2.66C65.68,273.77,74.42,171,143,113.18a162.64,162.64,0,0,1,219.13,8.62,7.5,7.5,0,0,1-10.56,10.66,147.62,147.62,0,0,0-198.9-7.82c-62.21,52.48-70.14,145.78-17.67,208A7.49,7.49,0,0,1,129.22,345Z"/><path class="cls-1" d="M162.64,254.05a7.49,7.49,0,0,1-4.45-1.47C129,231,109.25,200.94,102.54,167.88a7.5,7.5,0,1,1,14.7-3c6,29.41,23.68,56.26,49.87,75.62a7.5,7.5,0,0,1-4.47,13.53Z"/><path class="cls-1" d="M222,280.94a7.86,7.86,0,0,1-1.65-.18,170,170,0,0,1-31.57-10.42,7.5,7.5,0,0,1,6.09-13.71,154.7,154.7,0,0,0,28.77,9.49A7.5,7.5,0,0,1,222,280.94Z"/><path class="cls-1" d="M178.18,246.09l-.55,0a7.5,7.5,0,0,1-6.94-8c0-.42.06-1.28.09-2.16.06-1.6.1-2.62.16-3.3,3.66-43,21.81-94.14,44.14-124.31a7.5,7.5,0,0,1,12.06,8.92c-20.52,27.72-37.86,76.78-41.25,116.65,0,.39-.08,1.72-.12,2.6,0,1.09-.08,2.15-.12,2.68A7.5,7.5,0,0,1,178.18,246.09Z"/><path class="cls-1" d="M184.27,313.47a7.49,7.49,0,0,1-7.24-5.58A205.29,205.29,0,0,1,171,273.84a7.5,7.5,0,0,1,15-1.33,188.89,188.89,0,0,0,5.6,31.54,7.51,7.51,0,0,1-7.26,9.42Z"/><path class="cls-1" d="M314.48,160.47a7.5,7.5,0,0,1-6.23-3.33C295,137.33,268,117.23,246.94,111.4a7.5,7.5,0,1,1,4-14.46c24.89,6.89,54.23,28.69,69.77,51.85a7.51,7.51,0,0,1-6.23,11.68Z"/><path class="cls-1" d="M164,114.46a7.5,7.5,0,0,1-4.2-13.71c9.81-6.63,41.54-15.11,56.74-12.1a7.5,7.5,0,1,1-2.91,14.71c-10.51-2.07-38.5,5.13-45.44,9.82A7.42,7.42,0,0,1,164,114.46Z"/><path class="cls-1" d="M232,122c-.66,0-1.32,0-2-.08a23,23,0,1,1,19.52-37.74h0A23,23,0,0,1,232,122Zm0-31a8,8,0,1,0,6.11,2.83h0A8,8,0,0,0,232,91Z"/><path class="cls-1" d="M177,278.93c-.66,0-1.32,0-2-.09a23.14,23.14,0,1,1,19.65-38h0A23.15,23.15,0,0,1,177,278.93Zm0-31.3a8.16,8.16,0,1,0,.7,0C177.43,247.64,177.2,247.63,177,247.63Z"/><path class="cls-1" d="M348.91,186.46a7.49,7.49,0,0,1-5.71-12.35c48.77-57.4,61.74-83.89,63.33-91.94-3.74.69-13.49,4-35.32,19.08A7.5,7.5,0,1,1,362.7,88.9c12.64-8.71,23.2-14.89,31.38-18.35,4.13-1.75,16.68-7.07,23.94.19s3.92,20.37-10.95,44.05c-11.54,18.37-29.67,42.24-52.44,69A7.45,7.45,0,0,1,348.91,186.46Z"/><path class="cls-1" d="M192.34,344.63a7.5,7.5,0,0,1-5-13.13c17.61-15.52,44.8-40.23,74.36-69.79,5-5,10.11-10,15.24-15.12,14.26-14.09,29-28.66,40.91-41.72A7.5,7.5,0,1,1,329,215c-12.18,13.35-27.05,28.06-41.44,42.28-5.12,5.06-10.22,10.1-15.18,15.06-29.84,29.84-57.28,54.78-75.05,70.44A7.44,7.44,0,0,1,192.34,344.63Z"/><path class="cls-1" d="M80.29,421.62A12.9,12.9,0,0,1,70.77,418c-6.4-6.41-8.41-19.17,25.24-65.27a7.5,7.5,0,1,1,12.11,8.84C87.27,390.13,83,402.15,82.21,406.45c7.31-1.45,28.35-11.95,70-45.23a7.5,7.5,0,0,1,9.37,11.72c-21.25,17-40,30.28-54.23,38.47C98.1,416.73,88.21,421.62,80.29,421.62Zm1.77-13.14h0Z"/><path class="cls-1" d="M469.64,118.4a7.51,7.51,0,0,1-6.85-10.56C481,67.12,484.85,34.45,473,22.57,453.1,2.69,392.54,22.49,318.71,73a7.5,7.5,0,0,1-8.47-12.38C394,3.31,457.19-14.43,483.58,12c9.14,9.14,12.68,23.71,10.52,43.31-1.83,16.67-7.92,37-17.61,58.68A7.5,7.5,0,0,1,469.64,118.4Z"/><path class="cls-1" d="M324.85,312.28a7.5,7.5,0,0,1-5.4-12.7c51.66-53.62,96.71-110,123.6-154.58a7.5,7.5,0,0,1,12.85,7.74C428.46,198.28,382.66,255.6,330.26,310A7.53,7.53,0,0,1,324.85,312.28Z"/><path class="cls-1" d="M45.7,495.54c-14.36,0-25.7-4-33.71-12-18.85-18.85-15.42-56.19,9.91-108a7.5,7.5,0,1,1,13.47,6.59C13.75,426.35,9.1,459.44,22.6,472.94s46.66,8.83,90.92-12.85c46.89-23,103.21-63.32,158.6-113.63a7.5,7.5,0,1,1,10.09,11.1c-56.41,51.24-114,92.44-162.09,116C90.26,488.19,65.2,495.54,45.7,495.54Z"/><path class="cls-1" d="M46.51,353.62a7.5,7.5,0,0,1-6.43-11.35c9.41-15.74,20.37-32.25,32.58-49.06A7.5,7.5,0,1,1,84.8,302c-12,16.46-22.66,32.59-31.85,48A7.48,7.48,0,0,1,46.51,353.62Z"/><path class="cls-1" d="M175,378.4a25.17,25.17,0,1,1,25.17-25.17A25.2,25.2,0,0,1,175,378.4Zm0-35.34a10.17,10.17,0,1,0,10.17,10.17A10.19,10.19,0,0,0,175,343.06Z"/><path class="cls-1" d="M290.38,360.73a25.17,25.17,0,1,1,25.17-25.17A25.2,25.2,0,0,1,290.38,360.73Zm0-35.34a10.17,10.17,0,1,0,10.17,10.17A10.18,10.18,0,0,0,290.38,325.39Z"/><path class="cls-1" d="M335.19,219.71a25.17,25.17,0,1,1,25.17-25.17A25.2,25.2,0,0,1,335.19,219.71Zm0-35.34a10.17,10.17,0,1,0,10.17,10.17A10.19,10.19,0,0,0,335.19,184.37Z"/><path class="cls-1" d="M459.28,153.74a25.17,25.17,0,1,1,25.17-25.17A25.2,25.2,0,0,1,459.28,153.74Zm0-35.34a10.17,10.17,0,1,0,10.17,10.17A10.18,10.18,0,0,0,459.28,118.4Z"/><path class="cls-1" d="M37.12,386.37A23.88,23.88,0,1,1,61,362.49,23.9,23.9,0,0,1,37.12,386.37Zm0-32.75A8.88,8.88,0,1,0,46,362.49,8.88,8.88,0,0,0,37.12,353.62Z"/></g></g></svg>