<svg xmlns="http://www.w3.org/2000/svg" xmlns:xlink="http://www.w3.org/1999/xlink" viewBox="0 0 45.43 93.4"><defs><style>.cls-1{fill:none;}.cls-2{clip-path:url(#clip-path);}.cls-3{fill:#fff;}</style><clipPath id="clip-path" transform="translate(-27.29 -3.3)"><rect class="cls-1" width="100" height="100"/></clipPath></defs><g id="圖層_2" data-name="圖層 2"><g id="分離模式"><g class="cls-2"><path class="cls-3" d="M50,77.92c-3.68,0-5.87,2.71-5.87,7.25,0,4.87,5,10.58,5.24,10.82l.63.71.63-.71c.21-.24,5.24-5.95,5.24-10.82C55.87,80.63,53.68,77.92,50,77.92Z" transform="translate(-27.29 -3.3)"/><path class="cls-3" d="M71.29,60.81,65.78,53a85.27,85.27,0,0,0,1-12.42,50,50,0,0,0-8-27.25,41.37,41.37,0,0,0-8.05-9.4L50,3.3l-.72.58a41.37,41.37,0,0,0-8.05,9.4,50,50,0,0,0-8,27.25,85.27,85.27,0,0,0,1,12.42l-5.51,7.86a7.91,7.91,0,0,0-.9,7.36L32.37,80a1.65,1.65,0,0,0,1.36,1.06h.2a1.68,1.68,0,0,0,1.38-.71l4.76-6.81H59.93l4.76,6.8a1.67,1.67,0,0,0,1.38.72h.2A1.71,1.71,0,0,0,67.64,80l4.55-11.81A7.91,7.91,0,0,0,71.29,60.81ZM58.91,40.7a2.47,2.47,0,0,1-3.5,0L50,35.29,44.59,40.7a2.48,2.48,0,0,1-3.5-3.51L50,28.28l8.91,8.91A2.48,2.48,0,0,1,58.91,40.7Z" transform="translate(-27.29 -3.3)"/></g></g></g></svg>