<svg xmlns="http://www.w3.org/2000/svg" xmlns:xlink="http://www.w3.org/1999/xlink" viewBox="0 0 100 65.86"><defs><style>.cls-1{fill:none;}.cls-2{clip-path:url(#clip-path);}.cls-3{fill:#fff;}</style><clipPath id="clip-path" transform="translate(0 -17.07)"><rect class="cls-1" width="100" height="100"/></clipPath></defs><g id="圖層_2" data-name="圖層 2"><g id="分離模式"><g class="cls-2"><path class="cls-3" d="M99.93,30.23c-.59-4.93-3.91-9.46-9.12-12.45-1.47-.83-2.68-.93-3.61-.3-1.39,1-1.37,3.17-1.11,4.85l.15.87c.37,2.16.75,4.4-.72,5.69a7.48,7.48,0,0,1-3.68,1.3c-.45.07-2.8.37-3.44.38a1.64,1.64,0,0,0-.22,0C71.4,24.3,61.29,20.33,50,20.33s-21.4,4-28.18,10.22a1.64,1.64,0,0,0-.22,0c-.64,0-3-.31-3.44-.38a7.48,7.48,0,0,1-3.68-1.3c-1.47-1.29-1.09-3.53-.72-5.69l.15-.87c.26-1.68.28-3.89-1.11-4.85-.93-.63-2.14-.53-3.61.3C4,20.77.66,25.3.07,30.23c-.92,7.84,7.12,13.56,9.6,15.12a26,26,0,0,0,3.51,1.85c-.06.64-.1,1.28-.1,1.93a24.63,24.63,0,0,0,7,16.91l0,0c1.61,1.9,2.05,3.48,2.41,6.3.32,2.44,1,5.4,3.17,6.72a10.58,10.58,0,0,0,8,1c2.5-.76,3.18-2.6,3.73-4.09a5.2,5.2,0,0,1,1.45-2.46c.4-.31.72-.44,1-.37,1,.28,1.86,2.87,2.24,4,.08.23.16.44.22.63,1.24,3.38,3.83,5.1,7.68,5.1s6.44-1.72,7.68-5.1c.06-.19.14-.4.22-.63.38-1.1,1.28-3.69,2.24-4,.23-.07.55.06,1,.37a5.2,5.2,0,0,1,1.45,2.46c.55,1.49,1.23,3.33,3.73,4.09a10.58,10.58,0,0,0,8-1c2.2-1.32,2.85-4.28,3.17-6.72.36-2.82.8-4.4,2.41-6.3l0,0a24.63,24.63,0,0,0,7-16.91c0-.65,0-1.29-.1-1.93a26,26,0,0,0,3.51-1.85C92.81,43.79,100.85,38.07,99.93,30.23ZM13.49,44.88a23.64,23.64,0,0,1-2.62-1.44C8.67,42.06,1.54,37,2.31,30.5c.5-4.22,3.42-8.14,8-10.76a2.56,2.56,0,0,1,1.12-.42.14.14,0,0,1,.09,0c.16.11.43.93.16,2.65,0,.27-.09.55-.14.83-.41,2.38-1,5.64,1.46,7.76a9.23,9.23,0,0,0,4.8,1.83c.73.12,1.36.21,1.89.28a28.87,28.87,0,0,0-2.89,3.85l-.09.14c-.19.32-.37.64-.55,1-.09.16-.18.31-.26.47s-.29.56-.43.84l-.3.65c-.11.24-.22.49-.32.74s-.22.56-.33.85-.15.39-.21.59c-.15.43-.28.87-.4,1.31a1.09,1.09,0,0,0-.05.17c-.14.53-.27,1.07-.37,1.61ZM78.16,64.59a.76.76,0,0,0-.11.14c-2.07,2.49-2.5,4.72-2.85,7.37-.15,1.13-.54,4.15-2.08,5.08a8.33,8.33,0,0,1-6.2.81c-1.36-.41-1.71-1.21-2.27-2.71a7.14,7.14,0,0,0-2.15-3.44,3.22,3.22,0,0,0-3-.77c-2.08.6-3.08,3.48-3.74,5.4-.08.21-.15.41-.21.58-.92,2.51-2.63,3.63-5.56,3.63s-4.64-1.12-5.56-3.63c-.06-.17-.13-.37-.21-.58-.66-1.92-1.66-4.8-3.74-5.4a2.49,2.49,0,0,0-.76-.11,3.55,3.55,0,0,0-2.23.88,7.14,7.14,0,0,0-2.15,3.44c-.56,1.5-.91,2.3-2.27,2.71a8.32,8.32,0,0,1-6.2-.81c-1.54-.93-1.93-4-2.08-5.08-.35-2.65-.78-4.88-2.85-7.37a1.34,1.34,0,0,0-.11-.14,22.43,22.43,0,0,1-6.5-15.46,18.86,18.86,0,0,1,.16-2.5,18,18,0,0,1,.3-1.81l0-.13c.12-.55.27-1.09.43-1.63a1.54,1.54,0,0,0,0-.17,22.62,22.62,0,0,1,1.4-3.39,1.3,1.3,0,0,0,.08-.17,26,26,0,0,1,2-3.21l.1-.13a26.94,26.94,0,0,1,2.61-3C28.85,26.67,38.81,22.58,50,22.58S71.15,26.67,77.49,33a27.68,27.68,0,0,1,2.6,3l.11.15a24,24,0,0,1,2,3.2,1.62,1.62,0,0,0,.1.18,21.7,21.7,0,0,1,1.38,3.37l.06.18c.16.54.31,1.08.43,1.63l0,.13c.13.6.23,1.2.3,1.81a18.86,18.86,0,0,1,.16,2.5A22.43,22.43,0,0,1,78.16,64.59Zm11-21.15a22,22,0,0,1-2.62,1.43h0c-.1-.54-.23-1.08-.37-1.61,0-.06,0-.12,0-.19-.12-.43-.25-.86-.4-1.29-.07-.2-.14-.41-.22-.61s-.2-.55-.32-.83-.21-.5-.33-.75-.19-.42-.29-.63-.28-.57-.43-.86l-.25-.44c-.18-.33-.37-.66-.57-1l-.06-.11a27.85,27.85,0,0,0-2.91-3.88c.53-.07,1.16-.16,1.89-.28A9.23,9.23,0,0,0,87,30.58c2.42-2.12,1.87-5.38,1.46-7.76,0-.28-.1-.56-.14-.83-.27-1.72,0-2.54.16-2.65s.4-.06,1.21.4c4.58,2.62,7.5,6.54,8,10.76C98.46,37,91.33,42.06,89.13,43.44Z" transform="translate(0 -17.07)"/><path class="cls-3" d="M52.74,51.05a3.45,3.45,0,0,0-6.33,0l-3.18,5.36a3.92,3.92,0,0,0-.38,3.94,3.08,3.08,0,0,0,2.84,1.46h7.76a3.1,3.1,0,0,0,2.85-1.46,3.9,3.9,0,0,0-.39-3.94Zm1.6,8.18c-.16.28-.62.33-.89.33H45.69c-.26,0-.72-.05-.88-.33s-.14-.84.36-1.67l3.17-5.36c.37-.62.82-1,1.23-1s.86.35,1.23,1L54,57.55C54.47,58.39,54.48,59,54.34,59.23Z" transform="translate(0 -17.07)"/><path class="cls-3" d="M74.58,35.72a1.1,1.1,0,0,0-1-.21L58.87,39.1A1.13,1.13,0,0,0,58,40.19V51.35a8.5,8.5,0,1,0,17,0V36.6A1.09,1.09,0,0,0,74.58,35.72ZM72.76,51.35a6.25,6.25,0,1,1-12.5,0V41.08l12.5-3Z" transform="translate(0 -17.07)"/><path class="cls-3" d="M41.13,39.1,26.38,35.51a1.11,1.11,0,0,0-1,.21,1.09,1.09,0,0,0-.43.88V51.35a8.5,8.5,0,1,0,17,0V40.19A1.13,1.13,0,0,0,41.13,39.1ZM39.74,51.35a6.25,6.25,0,1,1-12.5,0V38l12.5,3Z" transform="translate(0 -17.07)"/></g></g></g></svg>