<svg xmlns="http://www.w3.org/2000/svg" viewBox="0 0 100 65.86"><defs><style>.cls-1{fill:none;}.cls-2{fill:#fff;}</style></defs><g id="圖層_2" data-name="圖層 2"><g id="分離模式"><path class="cls-1" d="M66.51,40.53a6.25,6.25,0,0,0,6.25-6.25V21l-12.5,3V34.28A6.26,6.26,0,0,0,66.51,40.53Z"/><path class="cls-1" d="M49.57,34.16c-.41,0-.86.36-1.23,1l-3.17,5.36c-.5.83-.51,1.42-.36,1.67s.62.33.88.33h7.76c.27,0,.73-.05.89-.33s.13-.84-.36-1.67L50.8,35.13C50.43,34.52,50,34.16,49.57,34.16Z"/><path class="cls-1" d="M33.49,40.53a6.26,6.26,0,0,0,6.25-6.25V24l-12.5-3V34.28A6.25,6.25,0,0,0,33.49,40.53Z"/><path class="cls-2" d="M99.93,13.17C99.34,8.24,96,3.7,90.81.71c-1.47-.83-2.68-.94-3.6-.3-1.4,1-1.38,3.17-1.12,4.86l.15.86c.37,2.16.75,4.4-.72,5.69a7.48,7.48,0,0,1-3.68,1.3c-.45.07-2.8.37-3.44.38a1.64,1.64,0,0,0-.22,0C71.4,7.24,61.29,3.26,50,3.26s-21.4,4-28.18,10.22a1.64,1.64,0,0,0-.22,0c-.64,0-3-.31-3.44-.38a7.48,7.48,0,0,1-3.68-1.3c-1.47-1.29-1.09-3.53-.72-5.69l.15-.86c.26-1.69.28-3.9-1.12-4.86-.92-.64-2.13-.53-3.6.3C4,3.7.66,8.24.07,13.17-.85,21,7.19,26.72,9.67,28.28a25.37,25.37,0,0,0,3.51,1.83c-.06.65-.1,1.3-.1,2a24.63,24.63,0,0,0,7,16.91.1.1,0,0,0,0,.05c1.61,1.91,2.05,3.48,2.41,6.3.32,2.44,1,5.4,3.17,6.72a10.56,10.56,0,0,0,8,1c2.51-.76,3.19-2.6,3.74-4.08a5.23,5.23,0,0,1,1.45-2.47,1.2,1.2,0,0,1,1-.37c1,.28,1.86,2.87,2.24,4,.08.22.16.44.22.62,1.24,3.38,3.83,5.1,7.68,5.1s6.44-1.72,7.68-5.1c.06-.18.14-.39.21-.62.39-1.11,1.28-3.7,2.25-4,.23-.07.56.06,1,.37A5.23,5.23,0,0,1,62.54,59c.55,1.48,1.23,3.32,3.73,4.08a10.58,10.58,0,0,0,8-1c2.2-1.32,2.85-4.28,3.16-6.72.37-2.82.81-4.4,2.42-6.3l0-.05a24.62,24.62,0,0,0,7-16.91q0-1-.09-2a26.5,26.5,0,0,0,3.51-1.83C92.81,26.72,100.85,21,99.93,13.17ZM72.76,21V34.28a6.25,6.25,0,1,1-12.5,0V24ZM54.34,42.16c-.16.28-.62.33-.89.33H45.69c-.26,0-.73-.05-.88-.33s-.14-.84.36-1.67l3.17-5.36c.37-.61.82-1,1.23-1s.86.36,1.23,1L54,40.49C54.47,41.32,54.48,41.91,54.34,42.16ZM39.74,24V34.28a6.25,6.25,0,1,1-12.5,0V21Z"/></g></g></svg>