<svg xmlns="http://www.w3.org/2000/svg" viewBox="0 0 87.56 71.29"><defs><style>.cls-1{fill:#fff;}</style></defs><g id="圖層_2" data-name="圖層 2"><g id="分離模式"><path class="cls-1" d="M85.12,1.43a7.32,7.32,0,0,1-.23.8,18,18,0,0,1-7.19,8.82.53.53,0,0,0-.24.25c.84-.14,1.69-.27,2.52-.44s1.73-.36,2.58-.59,1.67-.49,2.49-.78,1.61-.61,2.51-1c-.12.19-.18.3-.25.4a35.87,35.87,0,0,1-8.21,8.51,1,1,0,0,0-.45.93,39.91,39.91,0,0,1-.16,6.28,51.36,51.36,0,0,1-2.2,10.77,52.38,52.38,0,0,1-13.56,22.1A48,48,0,0,1,38.64,70.19a53.06,53.06,0,0,1-7.64,1,53.83,53.83,0,0,1-8.23-.1A50.77,50.77,0,0,1,6.55,66.8,52.16,52.16,0,0,1,.34,63.47L0,63.24a36.46,36.46,0,0,0,26.52-7.42C18.27,55.18,12.72,51,9.78,43.33A19.06,19.06,0,0,0,17.86,43,17.92,17.92,0,0,1,7.45,36.61a17.67,17.67,0,0,1-4-11.38c1.3.49,2.58,1,3.9,1.45a15.21,15.21,0,0,0,4.22.66A17.86,17.86,0,0,1,4.06,16.4,17.82,17.82,0,0,1,6,3.36c9.75,11.47,22.07,17.76,37.07,18.79-.12-.9-.26-1.72-.34-2.56a17.13,17.13,0,0,1,1.09-7.93A18,18,0,0,1,72.24,4.27,15.26,15.26,0,0,1,73.56,5.5a.52.52,0,0,0,.54.16A36.37,36.37,0,0,0,84.93,1.51l.2-.07Z"/><path class="cls-1" d="M85.13,1.44a0,0,0,0,1,0,0s0,0,0,0l0,0Z"/></g></g></svg>