<svg xmlns="http://www.w3.org/2000/svg" viewBox="0 0 343.72 157.83"><defs><style>.cls-1{fill:#fff;}</style></defs><g id="logo" data-name="logo"><path class="cls-1" d="M242.7,65.35a32.07,32.07,0,0,1,14,3.22,32.62,32.62,0,0,1,6,3.79c2.21,1.77,4.1,3.9,6.32,5.65a24.06,24.06,0,0,0,8,4A28.39,28.39,0,0,0,293.57,82a27.1,27.1,0,0,0,6.51-3A60.3,60.3,0,0,0,201,54,66.79,66.79,0,0,1,215.12,81,32.15,32.15,0,0,1,242.7,65.35ZM277,113a24.06,24.06,0,0,0-8,4c-2.22,1.75-4.11,3.88-6.32,5.64a32.67,32.67,0,0,1-6,3.8A32.09,32.09,0,0,1,215.12,114,66.85,66.85,0,0,1,201,141.08a60.29,60.29,0,0,0,99.07-25,27.45,27.45,0,0,0-6.51-3A28.3,28.3,0,0,0,277,113Z" /><path class="cls-1" d="M296.17,77.52V78c20.18,2.37,33.21,6.15,33.22,10.43,0,7.3-37.66,13.28-84.14,13.37-12.6,0-24.55-.38-35.28-1.14a.78.78,0,0,0,0,.14c-.21,1.51-.41,3-.73,4.49h0c11.17.67,23.31,1,36,1,54.4-.11,98.48-7.11,98.46-15.65C343.71,85,324.66,80.17,296.17,77.52Z" /><path class="cls-1" d="M89.93,68.46a67.45,67.45,0,0,1,28.12-29.63V26.25H118A28.11,28.11,0,0,0,89.93,0V68.46Z" /><path class="cls-1" d="M150.23,37.22A60.28,60.28,0,0,0,95,73.37l0,0L70.73,124.65,36.6,51.72l-.08,0A28.11,28.11,0,0,0,0,39.87L11.13,63.64,43,131.69h0l11.29,24.12h0a3.44,3.44,0,0,0,3.09,2h27a3.45,3.45,0,0,0,3.1-2h0l7.64-16.31,26.17-55.94a32.13,32.13,0,1,1-2.54,20.54L103.81,136a60.3,60.3,0,1,0,46.42-98.79Z" /></g></svg>